<?xml version="1.0" encoding="UTF-8" standalone="no"?>
<!-- Created with Inkscape (http://www.inkscape.org/) -->

<svg
   width="131.4912"
   height="49.037445"
   viewBox="0 0 34.790378 12.974491"
   version="1.1"
   id="svg1"
   inkscape:version="1.3 (0e150ed6c4, 2023-07-21)"
   sodipodi:docname="brandify_logo.svg"
   xmlns:inkscape="http://www.inkscape.org/namespaces/inkscape"
   xmlns:sodipodi="http://sodipodi.sourceforge.net/DTD/sodipodi-0.dtd"
   xmlns="http://www.w3.org/2000/svg"
   xmlns:svg="http://www.w3.org/2000/svg">
  <sodipodi:namedview
     id="namedview1"
     pagecolor="#ffffff"
     bordercolor="#666666"
     borderopacity="1.0"
     inkscape:showpageshadow="2"
     inkscape:pageopacity="0.0"
     inkscape:pagecheckerboard="0"
     inkscape:deskcolor="#d1d1d1"
     inkscape:document-units="px"
     showguides="true"
     inkscape:zoom="4.0970529"
     inkscape:cx="35.391293"
     inkscape:cy="-11.105544"
     inkscape:window-width="1920"
     inkscape:window-height="1009"
     inkscape:window-x="1272"
     inkscape:window-y="-8"
     inkscape:window-maximized="1"
     inkscape:current-layer="layer1" />
  <defs
     id="defs1" />
  <g
     inkscape:label="Calque 1"
     inkscape:groupmode="layer"
     id="layer1"
     transform="translate(-34.131248,-78.117112)">
    <g
       id="g29"
       transform="translate(0,-1.1855767)"
       style="fill:#333333">
      <path
         style="font-weight:bold;font-stretch:condensed;font-size:10.5833px;line-height:1.25;font-family:'Open Sans Condensed';-inkscape-font-specification:'Open Sans Condensed, Bold Condensed';fill:#333333;stroke-width:0.264583"
         d="m 52.896958,88.634358 q -0.83715,0 -1.2764,-0.795814 -0.43925,-0.795815 -0.43925,-2.206577 0,-1.41593 0.43925,-2.206577 0.43925,-0.790647 1.22989,-0.790647 0.26872,0 0.4961,0.09302 0.23254,0.09302 0.42374,0.284219 0.19637,0.186035 0.34106,0.470254 h 0.0517 q -0.0155,-0.335896 -0.031,-0.573606 -0.0103,-0.242879 -0.0103,-0.408243 V 80.49018 h 1.37459 v 8.040827 h -1.10071 l -0.1912,-0.635618 h -0.0827 q -0.16536,0.258382 -0.34623,0.423746 -0.1757,0.160196 -0.38757,0.237711 -0.21188,0.07751 -0.49093,0.07751 z m 0.40824,-1.152381 q 0.41341,0 0.61495,-0.403075 0.20154,-0.403075 0.20154,-1.266068 v -0.330728 q 0,-0.857826 -0.19637,-1.250566 -0.1912,-0.397907 -0.62012,-0.397907 -0.37206,0 -0.55293,0.454751 -0.1757,0.449583 -0.1757,1.333248 0,0.93534 0.18603,1.400426 0.18604,0.459919 0.5426,0.459919 z"
         id="path25" />
      <path
         style="font-weight:bold;font-stretch:condensed;font-size:10.5833px;line-height:1.25;font-family:'Open Sans Condensed';-inkscape-font-specification:'Open Sans Condensed, Bold Condensed';fill:#333333;stroke-width:0.264583"
         d="m 49.219675,82.634743 q 0.73381,0 1.12655,0.532266 0.3979,0.527098 0.3979,1.534785 v 3.829211 h -1.37459 v -3.431304 q 0,-0.60978 -0.12402,-0.919837 -0.12402,-0.315225 -0.47025,-0.315225 -0.43408,0 -0.60978,0.423745 -0.17053,0.423745 -0.17053,1.457271 v 2.78535 h -1.37459 v -5.787741 h 1.09037 l 0.14469,0.73897 h 0.0879 q 0.12919,-0.273884 0.31522,-0.459919 0.18604,-0.191202 0.42892,-0.289387 0.24288,-0.09819 0.53226,-0.09819 z"
         id="path24" />
      <path
         style="font-weight:bold;font-stretch:condensed;font-size:10.5833px;line-height:1.25;font-family:'Open Sans Condensed';-inkscape-font-specification:'Open Sans Condensed, Bold Condensed';fill:#333333;stroke-width:0.264583"
         d="m 44.250492,82.634743 q 0.84232,0 1.28157,0.521931 0.44442,0.516762 0.44442,1.54512 v 3.829211 h -1.00769 l -0.22221,-0.775144 h -0.031 q -0.17569,0.294555 -0.37723,0.490925 -0.19637,0.19637 -0.44959,0.289387 -0.25321,0.09819 -0.59427,0.09819 -0.48059,0 -0.78031,-0.258381 -0.29456,-0.258382 -0.42892,-0.671792 -0.13436,-0.41341 -0.13436,-0.878496 0,-0.904335 0.50126,-1.369421 0.50126,-0.465087 1.42627,-0.50126 l 0.7183,-0.03101 V 84.69146 q 0,-0.475422 -0.14986,-0.707965 -0.1447,-0.237711 -0.48059,-0.237711 -0.24805,0 -0.5426,0.09819 -0.29456,0.09819 -0.64596,0.30489 l -0.3824,-1.028358 q 0.39274,-0.237711 0.86299,-0.361734 0.47026,-0.124023 0.99219,-0.124023 z m 0.34623,3.209097 -0.38757,0.02067 q -0.43925,0.02067 -0.65629,0.248046 -0.21187,0.222208 -0.21187,0.651121 0,0.387572 0.12919,0.578774 0.13436,0.191203 0.38757,0.191203 0.32556,0 0.53226,-0.315226 0.20671,-0.315225 0.20671,-0.847491 z"
         id="path23" />
      <path
         style="font-weight:bold;font-stretch:condensed;font-size:10.5833px;line-height:1.25;font-family:'Open Sans Condensed';-inkscape-font-specification:'Open Sans Condensed, Bold Condensed';fill:#333333;stroke-width:0.264583"
         d="m 41.611899,82.634743 q 0.11369,0 0.22221,0.02067 0.10852,0.0155 0.25322,0.05684 l -0.12403,1.467606 q -0.10335,-0.04134 -0.22737,-0.05684 -0.11886,-0.0155 -0.26355,-0.0155 -0.23771,0 -0.42375,0.103353 -0.18603,0.103352 -0.31522,0.299722 -0.12403,0.191202 -0.19121,0.465086 -0.062,0.268717 -0.062,0.604613 v 2.950714 h -1.37459 v -5.787741 h 1.05937 l 0.19637,0.950843 h 0.0672 q 0.11368,-0.273884 0.28422,-0.516763 0.17053,-0.242878 0.3979,-0.392739 0.22738,-0.149862 0.50126,-0.149862 z"
         id="path22" />
      <path
         style="font-weight:bold;font-stretch:condensed;font-size:10.5833px;line-height:1.25;font-family:'Open Sans Condensed';-inkscape-font-specification:'Open Sans Condensed, Bold Condensed';fill:#333333;stroke-width:0.264583"
         d="m 34.131248,80.975935 h 1.989536 q 1.167884,0 1.746662,0.459919 0.58394,0.454751 0.58394,1.400427 0,0.444416 -0.12402,0.795814 -0.11886,0.346231 -0.34624,0.573607 -0.22737,0.227375 -0.547764,0.315225 v 0.05168 q 0.403074,0.108521 0.656284,0.341064 0.25839,0.232543 0.37724,0.589109 0.11886,0.356566 0.11886,0.837156 0,0.671791 -0.26872,1.162716 -0.26355,0.490924 -0.76481,0.759641 -0.501259,0.268716 -1.198888,0.268716 h -2.22208 z m 1.452103,3.059235 h 0.537433 q 0.439249,0 0.651121,-0.253214 0.217041,-0.253213 0.217041,-0.744138 0,-0.428913 -0.222208,-0.651121 -0.222208,-0.227375 -0.666624,-0.227375 h -0.516763 z m 0,1.152381 v 2.123895 h 0.656289 q 0.43408,0 0.651121,-0.268717 0.21704,-0.268717 0.21704,-0.816485 0,-0.335896 -0.10852,-0.563271 -0.10852,-0.232544 -0.315225,-0.351399 -0.201538,-0.124023 -0.50126,-0.124023 z"
         id="text1-2-2-9" />
    </g>
    <g
       id="g31">
      <g
         id="g30"
         transform="translate(0.7805527,-0.09071476)">
        <path
           style="font-weight:bold;font-stretch:condensed;font-size:10.5833px;line-height:1.25;font-family:'Open Sans Condensed';-inkscape-font-specification:'Open Sans Condensed, Bold Condensed';fill:#666666;stroke-width:0.264583"
           d="m 61.857628,81.68493 h 1.44177 l 0.67695,2.800853 q 0.0465,0.191202 0.0879,0.387572 0.0413,0.191202 0.0672,0.372069 0.031,0.180867 0.0465,0.341064 h 0.0413 q 0.0258,-0.211873 0.0775,-0.475422 0.0517,-0.268717 0.13436,-0.60978 l 0.63561,-2.816356 h 1.42627 l -1.72599,6.351013 q -0.1912,0.713132 -0.45475,1.147213 -0.25838,0.434081 -0.60978,0.63045 -0.3514,0.201538 -0.82682,0.201538 -0.1757,0 -0.3359,-0.02584 -0.16019,-0.02584 -0.32039,-0.06201 v -1.214392 q 0.10335,0.03101 0.20671,0.05168 0.10852,0.02067 0.2067,0.02067 0.21187,0 0.34106,-0.08268 0.13436,-0.08268 0.23772,-0.30489 0.10335,-0.222208 0.2222,-0.640786 l 0.0879,-0.346231 z"
           id="path29" />
        <path
           style="font-weight:bold;font-stretch:condensed;font-size:10.5833px;line-height:1.25;font-family:'Open Sans Condensed';-inkscape-font-specification:'Open Sans Condensed, Bold Condensed';fill:#666666;stroke-width:0.264583"
           d="m 61.733598,82.826975 h -0.93017 v 4.645696 h -1.37975 v -4.645696 h -0.66663 v -0.738971 l 0.66663,-0.403074 v -0.180867 q 0,-0.733803 0.14986,-1.204057 0.14986,-0.470255 0.48059,-0.69763 0.33589,-0.227376 0.87332,-0.227376 0.30489,0 0.54777,0.05684 0.24805,0.05168 0.57361,0.1757 l -0.29456,1.038693 q -0.14469,-0.04651 -0.27388,-0.07235 -0.12919,-0.03101 -0.26355,-0.03101 -0.22221,0 -0.32039,0.19637 -0.093,0.191202 -0.093,0.666624 v 0.279052 h 0.93017 z"
           id="path28" />
        <path
           style="font-weight:bold;font-stretch:condensed;font-size:10.5833px;line-height:1.25;font-family:'Open Sans Condensed';-inkscape-font-specification:'Open Sans Condensed, Bold Condensed';fill:#666666;stroke-width:0.264583"
           d="m 57.911625,79.406006 q 0.38757,0 0.56844,0.206705 0.18087,0.201538 0.18087,0.58911 0,0.377236 -0.19121,0.578774 -0.18603,0.19637 -0.5581,0.19637 -0.36173,0 -0.5581,-0.19637 -0.19637,-0.201538 -0.19637,-0.578774 0,-0.397908 0.18086,-0.594277 0.18604,-0.201538 0.57361,-0.201538 z"
           id="path27" />
        <path
           style="font-weight:bold;font-stretch:condensed;font-size:10.5833px;line-height:1.25;font-family:'Open Sans Condensed';-inkscape-font-specification:'Open Sans Condensed, Bold Condensed';fill:#666666;stroke-width:0.264583"
           d="m 58.598925,81.68493 v 5.787741 h -1.37459 V 81.68493 Z"
           id="path26" />
      </g>
      <rect
         style="fill:none;stroke:#b0b0b0;stroke-width:0.476332;stroke-linecap:square;stroke-linejoin:round;stroke-dasharray:0.476332, 1.42899;stroke-dashoffset:0;stroke-opacity:1;paint-order:markers fill stroke"
         id="rect29"
         width="12.155676"
         height="12.498158"
         x="56.527786"
         y="78.355278"
         ry="0" />
    </g>
  </g>
</svg>
